<svg width="133" height="33" viewBox="0 0 133 33" fill="none" xmlns="http://www.w3.org/2000/svg">
<path d="M64.9152 11.8094C64.1471 11.7937 63.3859 11.9567 62.6943 12.2851C62.0029 12.6135 61.4002 13.0979 60.9363 13.6987V6.7937H57.9373V24.4909H60.8085V22.819C61.2159 23.4281 61.7785 23.9221 62.4407 24.252C63.1028 24.582 63.8412 24.7364 64.5828 24.6998C67.7267 24.6998 69.8226 22.2924 69.8226 18.2129C69.8226 14.1334 67.9057 11.8094 64.9152 11.8094ZM63.8416 22.2839C61.9502 22.2839 60.8512 20.7625 60.8512 18.1042C60.8512 15.7301 62.1291 14.2254 63.9438 14.2254C65.7585 14.2254 66.7043 15.7552 66.7043 18.263C66.7043 20.913 65.6053 22.2839 63.8416 22.2839Z" fill="black"/>
<path d="M46.4523 6.7937L39.6365 24.4909H43.1381L44.5951 20.3111H51.7264L53.1576 24.4909H56.6764L50.082 6.7937H46.4523ZM45.3874 17.8534C46.9721 13.4813 47.611 11.7593 48.1564 9.9787C49.0084 12.5618 49.8603 14.9944 50.8912 17.8534H45.3874Z" fill="black"/>
<path d="M118.574 22.3927C116.606 22.3927 115.43 20.9382 115.43 18.2129C115.43 15.4292 116.768 14.1502 118.506 14.1502C119.707 14.1502 120.627 14.7019 120.985 16.3571L123.677 15.4543C123.422 14.3324 122.766 13.337 121.829 12.6473C120.892 11.9576 119.734 11.619 118.565 11.6925C114.757 11.6925 112.354 14.2004 112.354 18.2631C112.354 22.3259 114.706 24.8839 118.412 24.8839C119.581 24.957 120.74 24.6435 121.706 23.9932C122.671 23.3431 123.386 22.3938 123.737 21.2976L121.045 20.3948C120.968 20.9732 120.67 21.5015 120.211 21.8724C119.753 22.2434 119.167 22.4294 118.574 22.3927Z" fill="black"/>
<path d="M110.352 21.1304V16.5995C110.352 14.6433 110.08 13.6151 109.287 12.8795C108.765 12.4423 108.159 12.1109 107.506 11.9043C106.852 11.6976 106.163 11.62 105.479 11.6757C102.224 11.6757 100.171 13.1804 99.9663 15.8555L102.838 16.1314C102.833 15.8306 102.894 15.5323 103.017 15.2565C103.139 14.9807 103.32 14.7337 103.547 14.5319C103.774 14.3302 104.043 14.1784 104.335 14.0866C104.627 13.9948 104.936 13.9651 105.24 13.9997C105.878 13.9467 106.512 14.1351 107.012 14.5263C107.192 14.7324 107.328 14.9718 107.411 15.2303C107.494 15.4888 107.524 15.7611 107.498 16.031V16.7082C105.546 16.7734 103.614 17.1199 101.764 17.7364C101.066 17.9822 100.465 18.4376 100.046 19.0379C99.6266 19.6382 99.4112 20.3528 99.4296 21.0802C99.4296 23.3123 101.074 24.75 103.4 24.75C104.187 24.7885 104.973 24.6479 105.696 24.3389C106.418 24.0301 107.059 23.5614 107.566 22.9694C107.847 24.2151 108.742 24.6415 110.344 24.6415C110.809 24.6504 111.273 24.5824 111.715 24.4408V22.5682C110.565 22.7689 110.352 22.1084 110.352 21.1304ZM107.498 19.2411C107.511 19.94 107.319 20.6279 106.944 21.2223C106.649 21.6418 106.25 21.9813 105.786 22.2093C105.321 22.4372 104.805 22.5464 104.286 22.5263C102.948 22.5263 102.335 21.8493 102.335 20.9465C102.323 20.6065 102.424 20.272 102.624 19.9941C102.824 19.7163 103.112 19.5105 103.442 19.4083C104.745 18.9378 106.119 18.6836 107.507 18.6559L107.498 19.2411Z" fill="black"/>
<path d="M78.9476 15.6549L81.1715 14.1752C80.6336 13.3631 79.8876 12.7039 79.0084 12.2638C78.1292 11.8236 77.1474 11.6179 76.1617 11.6674C73.0094 11.6674 71.2285 13.4814 71.2285 15.4375C71.2285 17.3937 72.481 18.472 74.4492 19.0739L75.8039 19.5003C77.7207 20.1021 78.1554 20.4532 78.1554 21.2808C78.1554 22.1084 77.4396 22.5934 76.1361 22.5934C75.448 22.5958 74.7737 22.404 74.1935 22.0409C73.6134 21.6778 73.1522 21.1585 72.8645 20.5452L70.53 22.0499C71.117 22.9376 71.9269 23.6623 72.8817 24.1543C73.8368 24.6462 74.9047 24.8888 75.9828 24.8587C79.1522 24.8587 81.0947 23.1869 81.0947 20.8712C81.0947 18.8649 79.8168 17.8367 77.5675 17.1345L76.2723 16.7333C74.6365 16.2317 74.2276 15.8973 74.2276 15.1282C74.2276 14.3591 74.8411 13.891 76.119 13.891C76.7108 13.8991 77.2886 14.0684 77.788 14.3798C78.2875 14.6912 78.689 15.1327 78.9476 15.6549Z" fill="black"/>
<path d="M130.723 22.3677C129.803 22.3677 129.428 21.9162 129.428 20.6288V14.3675H131.899V12.0184H129.428V7.93896H126.455L126.404 12.0184H124.402V14.3675H126.404V21.2056C126.309 22.142 126.564 23.0804 127.12 23.8472C127.457 24.1812 127.866 24.4365 128.317 24.5942C128.769 24.752 129.25 24.8081 129.727 24.7584C130.48 24.752 131.229 24.6566 131.959 24.4741V22.1419C131.563 22.2841 131.145 22.3605 130.723 22.3677Z" fill="black"/>
<path d="M87.2291 20.6288V14.3675H89.6914V12.0184H87.2291V7.93896H84.2556L84.2043 12.0184H82.2363V14.3675H84.2384V21.2056C84.1441 22.142 84.3982 23.0804 84.9541 23.8472C85.2913 24.1812 85.7007 24.4365 86.1518 24.5942C86.6033 24.752 87.0849 24.8081 87.5612 24.7584C88.3142 24.752 89.0637 24.6566 89.7935 24.4741V22.1419C89.3973 22.2841 88.9797 22.3605 88.5581 22.3677C87.6039 22.3677 87.2291 21.9162 87.2291 20.6288Z" fill="black"/>
<path d="M94.2496 13.9495V12.0184H91.3867V24.5577H94.3858V18.7061C94.3002 17.71 94.5195 16.7115 95.0164 15.8388C95.3161 15.4117 95.7273 15.0715 96.2069 14.8539C96.6864 14.6362 97.2169 14.5491 97.7427 14.6016C98.1149 14.6039 98.4848 14.6574 98.8417 14.7604V12.0184C98.4868 11.9069 98.1154 11.8532 97.7427 11.8596C97.0141 11.8241 96.2913 12.0044 95.6683 12.3771C95.0454 12.7498 94.5511 13.2976 94.2496 13.9495Z" fill="black"/>
<path d="M14.4517 15.5438C13.9834 15.5442 13.5209 15.6457 13.0971 15.8413C12.6733 16.0369 12.2987 16.3217 11.9998 16.6755C11.7009 17.0292 11.4851 17.4432 11.3678 17.8881C11.2505 18.3329 11.2345 18.7977 11.3209 19.2493C11.4357 19.865 11.7356 20.433 12.1821 20.8801C12.6286 21.3272 13.2012 21.633 13.8263 21.7581C14.4514 21.8831 15.1004 21.8218 15.6896 21.582C16.2789 21.3421 16.7816 20.9347 17.1329 20.4122C17.4845 19.8973 17.6723 19.2916 17.6724 18.6718C17.6625 17.8424 17.3256 17.049 16.7324 16.4581C16.4328 16.1653 16.0769 15.9336 15.6854 15.7767C15.2939 15.6197 14.8746 15.5406 14.4517 15.5438Z" fill="black"/>
<path d="M17.1329 0C4.05393 0 0.78418 3.20819 0.78418 16.0409C0.78418 28.8737 4.05393 32.0819 17.1329 32.0819C30.2119 32.0819 33.4817 28.8737 33.4817 16.0409C33.4817 3.20819 30.2119 0 17.1329 0ZM18.8741 23.0107C17.8554 24.0226 16.5102 24.6558 15.0683 24.8022C13.6264 24.9483 12.1776 24.5988 10.9694 23.8128C9.94345 23.1333 9.1422 22.1742 8.66427 21.0537C8.19434 19.9317 8.07209 18.6986 8.31278 17.5087C8.54995 16.317 9.14491 15.222 10.0212 14.3647C10.6727 13.7201 11.4614 13.225 12.3309 12.9149C13.2003 12.6048 14.129 12.4873 15.0502 12.5708C15.9714 12.6544 16.8624 12.937 17.6592 13.3982C18.456 13.8595 19.1388 14.4881 19.6588 15.2389C20.4592 16.423 20.8153 17.8433 20.6662 19.2566C20.5171 20.67 19.872 21.9885 18.8414 22.9867L18.8741 23.0107ZM25.8223 24.5667H22.7569V10.5309H8.45174V7.5232H25.8223V24.5667Z" fill="black"/>
</svg>
