<svg width="57" height="56" viewBox="0 0 57 56" fill="none" xmlns="http://www.w3.org/2000/svg">
<rect y="0.0817871" width="57" height="55" rx="6" fill="#FF6363"/>
<mask id="mask0_233_563" style="mask-type:alpha" maskUnits="userSpaceOnUse" x="17" y="15" width="24" height="25">
<rect x="17" y="15.0818" width="24" height="24" fill="#D9D9D9"/>
</mask>
<g mask="url(#mask0_233_563)">
<path d="M25 36.0818V34.0818H27V32.0818H21C20.45 32.0818 19.9793 31.8861 19.588 31.4948C19.196 31.1028 19 30.6318 19 30.0818V20.0818C19 19.5318 19.196 19.0608 19.588 18.6688C19.9793 18.2775 20.45 18.0818 21 18.0818H37C37.55 18.0818 38.021 18.2775 38.413 18.6688C38.8043 19.0608 39 19.5318 39 20.0818V30.0818C39 30.6318 38.8043 31.1028 38.413 31.4948C38.021 31.8861 37.55 32.0818 37 32.0818H31V34.0818H33V36.0818H25ZM21 30.0818H37V20.0818H21V30.0818Z" fill="#FAF5E4"/>
</g>
</svg>
