<svg width="57" height="56" viewBox="0 0 57 56" fill="none" xmlns="http://www.w3.org/2000/svg">
<rect y="0.0817871" width="57" height="55" rx="6" fill="#FF6363"/>
<mask id="mask0_233_592" style="mask-type:alpha" maskUnits="userSpaceOnUse" x="17" y="15" width="24" height="25">
<rect x="17.5" y="15.5818" width="23" height="23" fill="#FAF5E4" stroke="#FAF5E4"/>
</mask>
<g mask="url(#mask0_233_592)">
<path d="M23 17.5818H30.793L36.5 23.2888V35.0818C36.5 35.4461 36.3912 35.7553 36.1641 36.0271L36.0596 36.1414C35.7606 36.4396 35.4163 36.5818 35 36.5818H23C22.6356 36.5818 22.3269 36.4728 22.0557 36.2458L21.9414 36.1414C21.6423 35.8423 21.5 35.498 21.5 35.0818V19.0818C21.5 18.7175 21.6092 18.4084 21.8369 18.1365L21.9414 18.0222C22.2396 17.724 22.5835 17.5818 23 17.5818ZM22.5 35.5818H35.5V23.5818H30.5V18.5818H22.5V35.5818ZM32.5 31.5818V32.5818H25.5V31.5818H32.5ZM32.5 27.5818V28.5818H25.5V27.5818H32.5Z" fill="#FAF5E4" stroke="#FAF5E4"/>
</g>
</svg>
