<svg width="57" height="56" viewBox="0 0 57 56" fill="none" xmlns="http://www.w3.org/2000/svg">
<rect y="0.0817871" width="57" height="55" rx="6" fill="#FF6363"/>
<mask id="mask0_233_581" style="mask-type:alpha" maskUnits="userSpaceOnUse" x="17" y="15" width="24" height="25">
<rect x="17" y="15.0818" width="24" height="24" fill="#FAF5E4"/>
</mask>
<g mask="url(#mask0_233_581)">
<path d="M27.95 28.4318L32.9 23.4818L31.475 22.0568L27.95 25.5818L26.55 24.1818L25.125 25.6068L27.95 28.4318ZM29 34.4318C31.0333 32.5651 32.5417 30.8691 33.525 29.3438C34.5083 27.8191 35 26.4651 35 25.2818C35 23.4651 34.4207 21.9775 33.262 20.8188C32.104 19.6608 30.6833 19.0818 29 19.0818C27.3167 19.0818 25.8957 19.6608 24.737 20.8188C23.579 21.9775 23 23.4651 23 25.2818C23 26.4651 23.4917 27.8191 24.475 29.3438C25.4583 30.8691 26.9667 32.5651 29 34.4318ZM29 37.0818C26.3167 34.7985 24.3127 32.6775 22.988 30.7188C21.6627 28.7608 21 26.9485 21 25.2818C21 22.7818 21.8043 20.7901 23.413 19.3068C25.021 17.8235 26.8833 17.0818 29 17.0818C31.1167 17.0818 32.979 17.8235 34.587 19.3068C36.1957 20.7901 37 22.7818 37 25.2818C37 26.9485 36.3377 28.7608 35.013 30.7188C33.6877 32.6775 31.6833 34.7985 29 37.0818Z" fill="#FAF5E4"/>
</g>
</svg>
