<svg width="60" height="61" viewBox="0 0 60 61" fill="none" xmlns="http://www.w3.org/2000/svg">
<mask id="mask0_225_36" style="mask-type:alpha" maskUnits="userSpaceOnUse" x="0" y="0" width="60" height="61">
<rect y="0.0817871" width="60" height="60" fill="#D9D9D9"/>
</mask>
<g mask="url(#mask0_225_36)">
<path d="M30 55.0818C26.5417 55.0818 23.2917 54.4251 20.25 53.1118C17.2083 51.8001 14.5625 50.0193 12.3125 47.7693C10.0625 45.5193 8.28167 42.8735 6.97 39.8318C5.65667 36.7901 5 33.5401 5 30.0818C5 26.6235 5.65667 23.3735 6.97 20.3318C8.28167 17.2901 10.0625 14.6443 12.3125 12.3943C14.5625 10.1443 17.2083 8.36262 20.25 7.04929C23.2917 5.73762 26.5417 5.08179 30 5.08179C33.4583 5.08179 36.7083 5.73762 39.75 7.04929C42.7917 8.36262 45.4375 10.1443 47.6875 12.3943C49.9375 14.6443 51.7183 17.2901 53.03 20.3318C54.3433 23.3735 55 26.6235 55 30.0818C55 33.5401 54.3433 36.7901 53.03 39.8318C51.7183 42.8735 49.9375 45.5193 47.6875 47.7693C45.4375 50.0193 42.7917 51.8001 39.75 53.1118C36.7083 54.4251 33.4583 55.0818 30 55.0818ZM27.5 49.9568V45.0818C26.125 45.0818 24.9483 44.5926 23.97 43.6143C22.99 42.6343 22.5 41.4568 22.5 40.0818V37.5818L10.5 25.5818C10.375 26.3318 10.26 27.0818 10.155 27.8318C10.0517 28.5818 10 29.3318 10 30.0818C10 35.1235 11.6567 39.5401 14.97 43.3318C18.2817 47.1235 22.4583 49.3318 27.5 49.9568ZM44.75 43.5818C45.5833 42.6651 46.3333 41.6751 47 40.6118C47.6667 39.5501 48.2192 38.446 48.6575 37.2993C49.0942 36.1543 49.4275 34.9776 49.6575 33.7693C49.8858 32.561 50 31.3318 50 30.0818C50 25.9985 48.865 22.2693 46.595 18.8943C44.3233 15.5193 41.2917 13.0818 37.5 11.5818V12.5818C37.5 13.9568 37.0108 15.1335 36.0325 16.1118C35.0525 17.0918 33.875 17.5818 32.5 17.5818H27.5V22.5818C27.5 23.2901 27.2608 23.8835 26.7825 24.3618C26.3025 24.8418 25.7083 25.0818 25 25.0818H20V30.0818H35C35.7083 30.0818 36.3025 30.321 36.7825 30.7993C37.2608 31.2793 37.5 31.8735 37.5 32.5818V40.0818H40C41.0833 40.0818 42.0625 40.4043 42.9375 41.0493C43.8125 41.696 44.4167 42.5401 44.75 43.5818Z" fill="#125B50"/>
</g>
</svg>
