<svg width="126" height="33" viewBox="0 0 126 33" fill="none" xmlns="http://www.w3.org/2000/svg">
<path d="M54.1039 21.3907L52.7543 25.4869C52.7366 25.5533 52.6964 25.6117 52.64 25.6522C52.5838 25.6927 52.515 25.713 52.4453 25.7097H49.1692C48.9732 25.7097 48.9152 25.5983 48.9456 25.4379L54.5732 9.45267C54.7607 8.90868 54.8539 8.33756 54.8492 7.76316C54.8469 7.71591 54.863 7.66957 54.8942 7.6337C54.9257 7.5978 54.9698 7.57512 55.0176 7.57031H59.519C59.6598 7.57031 59.7151 7.59747 59.7454 7.736L66.1319 25.4597C66.1871 25.5983 66.1595 25.7097 65.9911 25.7097H62.3396C62.2726 25.7208 62.2038 25.7075 62.1463 25.6718C62.0888 25.6362 62.0465 25.5809 62.0279 25.5167L60.5927 21.3907H54.1039ZM59.5632 17.9275C59.0113 16.0994 57.8742 12.7502 57.3415 10.7836H57.3139C56.8612 12.6389 55.8484 15.673 55.1059 17.9275H59.5632Z" fill="#FA0F00"/>
<path d="M66.5815 18.9515C66.5815 14.9912 69.5928 11.6692 74.7428 11.6692C74.9664 11.6692 75.2478 11.6963 75.6702 11.7235V6.26922C75.6671 6.24316 75.67 6.21675 75.6788 6.19196C75.6874 6.16718 75.7019 6.14466 75.7207 6.1261C75.7395 6.10754 75.7624 6.09344 75.7875 6.08482C75.8128 6.07622 75.8395 6.07332 75.866 6.07637H79.4126C79.5534 6.07637 79.5811 6.13069 79.5811 6.24206V22.6075C79.5736 23.2831 79.6114 23.9581 79.6942 24.6285C79.6942 24.7671 79.6666 24.8241 79.4982 24.8785C77.7447 25.6119 75.8588 25.9888 73.9534 25.9866C69.7886 25.9866 66.5815 23.6616 66.5815 18.9515ZM75.6702 15.021C75.3347 14.9131 74.982 14.8661 74.6296 14.8825C72.463 14.8825 70.6056 16.1836 70.6056 18.7586C70.6056 21.4994 72.2092 22.6918 74.3482 22.6918C74.7951 22.7103 75.2422 22.6543 75.6702 22.526V15.021Z" fill="#FA0F00"/>
<path d="M95.6967 18.7587C95.6967 23.1046 92.8263 25.9866 88.7746 25.9866C83.9615 25.9866 81.8252 22.4149 81.8252 18.8429C81.8252 14.9097 84.4969 11.6692 88.8299 11.6692C93.3619 11.6692 95.6967 15.0211 95.6967 18.7587ZM85.7913 18.7858C85.7913 21.2305 86.9449 22.7733 88.8272 22.7733C90.4611 22.7733 91.6976 21.3907 91.6976 18.8429C91.6976 16.6699 90.7977 14.8825 88.6617 14.8825C87.0304 14.8825 85.7913 16.3222 85.7913 18.7858Z" fill="#FA0F00"/>
<path d="M101.611 6.07642C101.835 6.07642 101.887 6.10357 101.887 6.29642V11.9734C102.658 11.7704 103.452 11.6682 104.25 11.6692C108.389 11.6692 111.003 14.5485 111.003 18.2589C111.003 23.4388 106.838 25.9867 102.563 25.9867C101.067 25.9969 99.5777 25.7817 98.1474 25.3484C98.0976 25.3214 98.056 25.2822 98.0265 25.2345C97.9971 25.1868 97.9806 25.1325 97.979 25.0768V6.26926C97.979 6.13073 98.0342 6.07642 98.175 6.07642H101.611ZM103.543 14.9369C102.983 14.93 102.425 15.0051 101.887 15.1596V22.6782C102.228 22.7546 102.578 22.7912 102.928 22.7869C105.067 22.7869 107.007 21.513 107.007 18.6337C107.012 16.0994 105.522 14.9369 103.551 14.9369H103.543Z" fill="#FA0F00"/>
<path d="M116.509 19.8396C116.65 21.4178 117.776 22.7188 120.533 22.7188C121.719 22.7413 122.897 22.5241 123.994 22.0805C124.08 22.0262 124.163 22.0534 124.163 22.2191V24.8512C124.163 25.0439 124.108 25.1228 123.967 25.1825C122.841 25.7096 121.604 25.9974 119.661 25.9974C114.37 25.9974 112.516 22.4254 112.516 18.9921C112.516 15.1704 114.906 11.6799 119.324 11.6799C123.572 11.6799 125.261 14.9204 125.261 17.6557C125.281 18.2773 125.234 18.8992 125.12 19.5109C125.116 19.5688 125.091 19.6232 125.05 19.6642C125.008 19.7052 124.953 19.7299 124.894 19.7337C123.931 19.8233 122.963 19.8604 121.996 19.845L116.509 19.8396ZM120.169 17.1532C120.638 17.1701 121.108 17.151 121.574 17.0962V16.9033C121.566 16.6043 121.497 16.3098 121.372 16.0371C121.247 15.7644 121.068 15.519 120.845 15.3152C120.623 15.1114 120.362 14.9532 120.076 14.85C119.791 14.7468 119.487 14.7006 119.184 14.714C117.412 14.714 116.65 16.0178 116.482 17.1586L120.169 17.1532Z" fill="#FA0F00"/>
<path d="M23.248 0H36.8628V32.0819L23.248 0Z" fill="#FA0F00"/>
<path d="M13.6542 0H0.0283203V32.0819L13.6542 0Z" fill="#FA0F00"/>
<path d="M18.4508 11.824L27.1253 32.0819H21.4398L18.8454 25.6308H12.4976L18.4508 11.824Z" fill="#FA0F00"/>
</svg>
