<svg width="151" height="33" viewBox="0 0 151 33" fill="none" xmlns="http://www.w3.org/2000/svg">
<path d="M60.6733 18.4684L58.0602 11.5517C57.9535 11.2688 57.546 11.2688 57.4392 11.5517L54.8265 18.4688C54.8079 18.518 54.8018 18.5708 54.8084 18.6228C54.8152 18.6749 54.8347 18.7245 54.8651 18.7675C54.8957 18.8106 54.9363 18.8457 54.9837 18.87C55.0309 18.8943 55.0836 18.9069 55.1371 18.9069H60.3626C60.416 18.9069 60.4686 18.8942 60.516 18.8699C60.5632 18.8456 60.6038 18.8105 60.6345 18.7674C60.6649 18.7243 60.6844 18.6747 60.691 18.6226C60.6978 18.5706 60.6916 18.5178 60.673 18.4686L60.6733 18.4684ZM61.8803 22.3562H53.6195C53.5518 22.3562 53.486 22.3765 53.4305 22.4144C53.3751 22.4523 53.3327 22.506 53.3091 22.5681L51.6827 26.872C51.6593 26.9341 51.6169 26.9878 51.5616 27.0257C51.506 27.0636 51.4399 27.0839 51.3723 27.0839H47.792C47.7378 27.0839 47.6844 27.0709 47.6368 27.046C47.5889 27.021 47.5481 26.9849 47.5177 26.9408C47.4875 26.8969 47.4685 26.8461 47.4628 26.7933C47.4571 26.7405 47.4646 26.6871 47.4846 26.6378L55.7279 6.47345C55.7527 6.41321 55.7951 6.36164 55.85 6.32532C55.9047 6.28901 55.9694 6.26962 56.0356 6.26969H59.4639C59.5989 6.26969 59.7205 6.35032 59.7711 6.47345L68.0143 26.6376C68.0345 26.6868 68.0422 26.7403 68.0363 26.7933C68.0306 26.8461 68.0118 26.8969 67.9814 26.9411C67.9512 26.9852 67.9102 27.0213 67.8623 27.0462C67.8146 27.0712 67.7611 27.0841 67.7071 27.0841H64.1272C64.0596 27.0841 63.9936 27.0638 63.938 27.0257C63.8826 26.9878 63.8402 26.9341 63.8168 26.872L62.1902 22.5681C62.1666 22.506 62.1245 22.4523 62.0689 22.4144C62.0135 22.3765 61.9475 22.3562 61.8799 22.3562H61.8803ZM69.6919 13.3464H72.7543C72.8421 13.3464 72.9263 13.3806 72.9884 13.4416C73.0504 13.5026 73.0853 13.5852 73.0853 13.6715V26.7588C73.0853 26.845 73.0504 26.9277 72.9884 26.9887C72.9263 27.0496 72.8421 27.0839 72.7543 27.0839H69.6919C69.6041 27.0839 69.5197 27.0496 69.4578 26.9887C69.3956 26.9277 69.3607 26.845 69.3607 26.7588V13.6713C69.3607 13.585 69.3956 13.5024 69.4578 13.4413C69.5197 13.3804 69.6041 13.3461 69.6919 13.3461V13.3464ZM84.254 16.5298C84.254 16.6161 84.2191 16.6988 84.1569 16.7597C84.0949 16.8207 84.0105 16.855 83.9227 16.855H83.8302C82.3159 16.855 81.2053 17.2118 80.499 17.9254C79.792 18.639 79.4392 19.8187 79.4392 21.4639V26.7588C79.4392 26.845 79.4042 26.9277 79.3423 26.9887C79.2801 27.0496 79.1959 27.0839 79.1081 27.0839H76.0757C75.9879 27.0839 75.9037 27.0496 75.8416 26.9887C75.7794 26.9277 75.7447 26.845 75.7447 26.7588V13.6713C75.7447 13.585 75.7794 13.5024 75.8416 13.4413C75.9037 13.3804 75.9879 13.3461 76.0757 13.3461H79.0777C79.1655 13.3461 79.2497 13.3804 79.3119 13.4413C79.3738 13.5024 79.4087 13.585 79.4087 13.6713V16.2599H79.4696C79.8328 15.1895 80.4082 14.3673 81.1957 13.792C81.9828 13.2174 82.9519 12.9297 84.1024 12.9297H84.254V16.5296V16.5298ZM92.6274 16.4089C92.5396 16.4089 92.4552 16.4431 92.3932 16.5041C92.3311 16.5651 92.2961 16.6478 92.2961 16.734V22.1775C92.2961 22.7328 92.4066 23.1291 92.629 23.367C92.8509 23.6048 93.2346 23.7237 93.7798 23.7237H94.0845C94.1723 23.7237 94.2567 23.758 94.3186 23.8191C94.3808 23.8799 94.4157 23.9626 94.4157 24.049V26.7882C94.4157 26.8744 94.3808 26.9571 94.3186 27.0181C94.2567 27.0792 94.1723 27.1133 94.0845 27.1133H92.7803C91.4278 27.1133 90.3882 26.7715 89.6615 26.0875C88.9345 25.4038 88.571 24.3881 88.571 23.0398V16.734C88.571 16.6478 88.5361 16.5651 88.4742 16.5041C88.412 16.4431 88.3278 16.4089 88.24 16.4089H86.3285C86.2407 16.4089 86.1565 16.3746 86.0943 16.3136C86.0321 16.2526 85.9972 16.1699 85.9972 16.0837V13.6713C85.9972 13.585 86.0321 13.5024 86.0943 13.4413C86.1565 13.3804 86.2407 13.3461 86.3285 13.3461H88.2402C88.328 13.3461 88.4122 13.3119 88.4744 13.2509C88.5363 13.1899 88.5713 13.1072 88.5713 13.021V8.17032C88.5713 8.08408 88.6062 8.00138 88.6684 7.9404C88.7303 7.87942 88.8147 7.84515 88.9025 7.84515H91.9649C92.0527 7.84515 92.1369 7.87942 92.199 7.9404C92.261 8.00138 92.2959 8.08408 92.2959 8.17032V13.021C92.2959 13.1072 92.3309 13.1899 92.393 13.2509C92.455 13.3119 92.5394 13.3461 92.6272 13.3461H94.8416C94.9294 13.3461 95.0136 13.3804 95.0758 13.4413C95.1377 13.5024 95.1727 13.585 95.1727 13.6713V16.0839C95.1727 16.1702 95.1377 16.2529 95.0758 16.3138C95.0136 16.3748 94.9294 16.4091 94.8416 16.4091H92.6274V16.4089ZM106.65 23.0101C107.347 22.2965 107.695 21.3649 107.695 20.2149C107.695 19.0656 107.347 18.1335 106.65 17.4199C105.954 16.7063 105.04 16.3495 103.909 16.3495C102.779 16.3495 101.866 16.7063 101.169 17.4199C100.473 18.1335 100.124 19.0656 100.124 20.2149C100.124 21.3649 100.473 22.2965 101.169 23.0101C101.866 23.7237 102.779 24.0806 103.909 24.0806C105.04 24.0806 105.954 23.7237 106.65 23.0101ZM99.5793 26.6675C98.5497 26.0929 97.7367 25.255 97.1416 24.1548C96.5458 23.0547 96.2481 21.7416 96.2481 20.2149C96.2481 18.6888 96.5458 17.3752 97.1416 16.2751C97.7367 15.175 98.5497 14.3378 99.5793 13.7625C100.609 13.1877 101.739 12.9002 102.971 12.9002C104.061 12.9002 104.995 13.1083 105.772 13.5245C106.549 13.9407 107.169 14.5258 107.634 15.2791H107.695V13.6713C107.695 13.585 107.73 13.5024 107.792 13.4413C107.854 13.3804 107.938 13.3461 108.026 13.3461H111.058C111.146 13.3461 111.23 13.3804 111.292 13.4413C111.354 13.5024 111.389 13.585 111.389 13.6713V26.7586C111.389 26.8448 111.354 26.9275 111.292 26.9885C111.23 27.0493 111.146 27.0836 111.058 27.0836H108.026C107.938 27.0836 107.854 27.0493 107.792 26.9885C107.73 26.9275 107.695 26.8448 107.695 26.7586V25.1509H107.634C107.169 25.9046 106.549 26.489 105.772 26.9052C104.995 27.3216 104.061 27.5297 102.971 27.5297C101.739 27.5297 100.609 27.242 99.5793 26.6675ZM124 23.0101C124.696 22.2965 125.044 21.3649 125.044 20.2149C125.044 19.0656 124.696 18.1335 124 17.4199C123.303 16.7063 122.39 16.3495 121.259 16.3495C120.128 16.3495 119.215 16.7063 118.519 17.4199C117.822 18.1335 117.474 19.0656 117.474 20.2149C117.474 21.3649 117.822 22.2965 118.519 23.0101C119.215 23.7237 120.128 24.0806 121.259 24.0806C122.39 24.0806 123.303 23.7237 124 23.0101ZM119.397 26.9052C118.619 26.489 117.999 25.9046 117.534 25.1509H117.474V26.7586C117.474 26.8448 117.439 26.9275 117.377 26.9885C117.315 27.0493 117.23 27.0836 117.142 27.0836H114.08C113.992 27.0836 113.908 27.0493 113.846 26.9885C113.784 26.9275 113.749 26.8448 113.749 26.7586V6.59418C113.749 6.50794 113.784 6.42524 113.846 6.36426C113.908 6.30329 113.992 6.26904 114.08 6.26904H117.142C117.23 6.26904 117.315 6.30329 117.377 6.36426C117.439 6.42524 117.474 6.50794 117.474 6.59418V15.2788H117.534C117.999 14.5256 118.619 13.9407 119.397 13.5245C120.174 13.1081 121.108 12.9 122.198 12.9C123.429 12.9 124.56 13.1875 125.589 13.7623C126.619 14.3376 127.431 15.1748 128.027 16.2747C128.622 17.3754 128.921 18.6891 128.921 20.2151C128.921 21.7418 128.622 23.0547 128.027 24.1551C127.432 25.2552 126.619 26.0931 125.59 26.6675C124.56 27.2423 123.429 27.5301 122.198 27.5301C121.108 27.5301 120.174 27.3218 119.397 26.9054L119.397 26.9052ZM134.08 27.0839H131.018C130.93 27.0839 130.846 27.0496 130.784 26.9887C130.722 26.9277 130.687 26.845 130.687 26.7588V6.59483C130.687 6.50861 130.722 6.42589 130.784 6.36491C130.846 6.30393 130.93 6.26969 131.018 6.26969H134.08C134.168 6.26969 134.252 6.30393 134.314 6.36491C134.376 6.42589 134.411 6.50861 134.411 6.59483V26.7588C134.411 26.845 134.376 26.9277 134.314 26.9887C134.252 27.0496 134.168 27.0839 134.08 27.0839ZM141.304 16.5281C140.796 16.917 140.453 17.4784 140.276 18.2128C140.227 18.4153 140.388 18.6095 140.6 18.6095H146.428C146.63 18.6095 146.789 18.4318 146.756 18.2358C146.64 17.5411 146.336 16.9872 145.846 16.5727C145.271 16.0872 144.519 15.8444 143.59 15.8444C142.661 15.8444 141.899 16.0722 141.304 16.5281ZM148.768 14.8182C149.959 16.0972 150.555 17.9061 150.555 20.2448V20.6333C150.555 20.7195 150.52 20.8022 150.458 20.8632C150.396 20.9242 150.312 20.9584 150.224 20.9584H140.487C140.439 20.9585 140.391 20.969 140.347 20.9891C140.303 21.0093 140.264 21.0386 140.233 21.0751C140.202 21.1115 140.179 21.1542 140.166 21.2002C140.154 21.2462 140.151 21.2943 140.16 21.3412C140.315 22.21 140.707 22.9003 141.334 23.4116C142.051 23.9969 142.954 24.2889 144.044 24.2889C145.452 24.2889 146.754 23.7496 147.952 22.6706C148.099 22.5389 148.331 22.5668 148.444 22.727L149.933 24.8254C149.98 24.8907 150 24.9705 149.991 25.0498C149.981 25.1289 149.943 25.2019 149.882 25.255C149.152 25.883 148.339 26.413 147.466 26.8312C146.497 27.2968 145.356 27.5301 144.044 27.5301C142.53 27.5301 141.208 27.2273 140.077 26.6231C138.946 26.0187 138.068 25.1663 137.443 24.0657C136.817 22.9658 136.504 21.6922 136.504 20.2448C136.504 18.7981 136.807 17.5196 137.413 16.4091C138.018 15.2992 138.866 14.4369 139.956 13.8221C141.047 13.208 142.318 12.9004 143.772 12.9004C145.911 12.9004 147.577 13.5399 148.768 14.8182ZM73.4853 8.50805C73.4853 9.73453 72.4727 10.7288 71.2234 10.7288C69.974 10.7288 68.9613 9.73453 68.9613 8.50782C68.9613 7.28114 69.9742 6.2868 71.2234 6.2868C72.4727 6.2868 73.4853 7.28114 73.4853 8.50782" fill="#333333"/>
<path d="M17.8795 0.404798L3.31832 6.32109C2.50858 6.65015 2.51697 7.77972 3.3318 8.09686L17.9537 13.7905C19.2384 14.2909 20.6692 14.2909 21.9539 13.7905L36.576 8.09664C37.3905 7.77972 37.3994 6.65035 36.5892 6.32131L22.0285 0.404581C20.7 -0.135186 19.2078 -0.135186 17.8793 0.404581" fill="#FCB400"/>
<path d="M21.251 16.8994V31.1232C21.251 31.7994 21.9457 32.2628 22.5861 32.0137L38.8795 25.8036C39.0612 25.7328 39.2171 25.6103 39.3269 25.4514C39.4367 25.2926 39.4953 25.105 39.4953 24.9132V10.6896C39.4953 10.013 38.8005 9.54978 38.1602 9.79909L21.8669 16.0091C21.6852 16.0799 21.5293 16.2026 21.4195 16.3614C21.3097 16.5202 21.251 16.7077 21.251 16.8996" fill="#18BFFF"/>
<path d="M17.4462 17.6335L12.6108 19.926L12.1198 20.1591L1.91235 24.9616C1.26553 25.2682 0.439453 24.805 0.439453 24.0992V10.7493C0.439453 10.4939 0.572791 10.2735 0.751605 10.1077C0.824963 10.0359 0.908189 9.97464 0.998854 9.92558C1.24257 9.78186 1.59049 9.7435 1.8863 9.85839L17.365 15.8807C18.1518 16.1872 18.2136 17.2697 17.4462 17.6337" fill="#F82B60"/>
<path d="M17.4461 17.6335L12.6106 19.926L0.751465 10.1074C0.824837 10.0358 0.90806 9.97457 0.998714 9.92558C1.24243 9.78186 1.59035 9.7435 1.88616 9.85839L17.3649 15.8807C18.1517 16.1872 18.2135 17.2697 17.4461 17.6337" fill="black" fill-opacity="0.25"/>
</svg>
