<svg width="165" height="33" viewBox="0 0 165 33" fill="none" xmlns="http://www.w3.org/2000/svg">
<path fill-rule="evenodd" clip-rule="evenodd" d="M25.2331 7.51218C25.2331 11.6614 21.8089 15.0252 17.5847 15.0252C13.3603 15.0252 9.93599 11.6614 9.93599 7.51218C9.93599 3.36374 13.3603 0 17.5847 0C21.8089 0 25.2331 3.36374 25.2331 7.51218ZM7.64866 16.9035C3.42445 16.9035 0 20.2662 0 24.4154C0 28.5645 3.42445 31.9279 7.64866 31.9279C11.873 31.9279 15.2977 28.5645 15.2977 24.4154C15.2977 20.2662 11.873 16.9035 7.64866 16.9035ZM27.5206 16.9028C23.2962 16.9028 19.8718 20.2662 19.8718 24.4154C19.8718 28.5645 23.2962 31.9279 27.5206 31.9279C31.7447 31.9279 35.1691 28.5645 35.1691 24.4154C35.1691 20.2662 31.7447 16.9028 27.5206 16.9028Z" fill="url(#paint0_radial_207_73)"/>
<path fill-rule="evenodd" clip-rule="evenodd" d="M62.083 24.3266C62.1827 25.441 63.0903 26.8597 64.6626 26.8597H65.5827C65.9392 26.8597 66.2316 26.5726 66.2316 26.2219V6.34873H66.2275C66.2089 6.01392 65.9274 5.74577 65.5827 5.74577H62.7319C62.3872 5.74577 62.1054 6.01392 62.0864 6.34873H62.083V7.96354C60.3363 5.8489 57.5823 4.97119 54.8209 4.97119C48.5439 4.97119 43.4553 9.97287 43.4553 16.1431C43.4553 22.3137 48.5439 27.3156 54.8209 27.3156V27.316C57.5823 27.316 60.592 26.2631 62.0825 24.3241L62.083 24.3266ZM54.832 23.4056C50.8398 23.4056 47.6035 20.1543 47.6035 16.1431C47.6035 12.1326 50.8398 8.88128 54.832 8.88128C58.824 8.88128 62.0601 12.1326 62.0601 16.1431C62.0601 20.1543 58.824 23.4056 54.832 23.4056Z" fill="#273347"/>
<path fill-rule="evenodd" clip-rule="evenodd" d="M108.529 24.3266C108.629 25.441 109.536 26.8597 111.109 26.8597H112.029C112.385 26.8597 112.677 26.5726 112.677 26.2219V6.34873H112.674C112.655 6.01392 112.373 5.74577 112.029 5.74577H109.178C108.833 5.74577 108.552 6.01392 108.532 6.34873H108.529V7.96354C106.782 5.8489 104.028 4.97119 101.267 4.97119C94.9897 4.97119 89.9014 9.97287 89.9014 16.1431C89.9014 22.3137 94.9897 27.3156 101.267 27.3156V27.316C104.028 27.316 107.038 26.2631 108.529 24.3241L108.529 24.3266ZM101.278 23.4056C97.2858 23.4056 94.0493 20.1543 94.0493 16.1431C94.0493 12.1326 97.2858 8.88128 101.278 8.88128C105.27 8.88128 108.506 12.1326 108.506 16.1431C108.506 20.1543 105.27 23.4056 101.278 23.4056Z" fill="#273347"/>
<path fill-rule="evenodd" clip-rule="evenodd" d="M160.45 24.3266C160.55 25.441 161.458 26.8597 163.03 26.8597H163.95C164.307 26.8597 164.599 26.5726 164.599 26.2219V6.34873H164.595C164.577 6.01392 164.295 5.74577 163.95 5.74577H161.099C160.755 5.74577 160.473 6.01392 160.454 6.34873H160.45V7.96354C158.704 5.8489 155.95 4.97119 153.189 4.97119C146.911 4.97119 141.823 9.97287 141.823 16.1431C141.823 22.3137 146.911 27.3156 153.189 27.3156V27.316C155.95 27.316 158.959 26.2631 160.45 24.3241L160.45 24.3266ZM153.2 23.4056C149.207 23.4056 145.971 20.1543 145.971 16.1431C145.971 12.1326 149.207 8.88128 153.2 8.88128C157.192 8.88128 160.428 12.1326 160.428 16.1431C160.428 20.1543 157.192 23.4056 153.2 23.4056Z" fill="#273347"/>
<path fill-rule="evenodd" clip-rule="evenodd" d="M138.22 25.0099L138.218 14.7264H138.218C138.218 8.92965 134.498 5.01904 128.565 5.01904C125.733 5.01904 123.411 6.62875 122.591 8.01157C122.414 6.93032 121.83 5.7938 120.019 5.7938H119.096C118.739 5.7938 118.447 6.08111 118.447 6.43167V24.3763V24.3789V26.3065H118.451C118.47 26.6409 118.751 26.9094 119.096 26.9094H121.947C121.991 26.9094 122.034 26.9043 122.075 26.8962C122.094 26.8927 122.111 26.8855 122.13 26.8804C122.151 26.874 122.173 26.8691 122.193 26.8608C122.218 26.8506 122.241 26.8365 122.265 26.8238C122.277 26.8167 122.289 26.8118 122.3 26.8047C122.328 26.7866 122.355 26.7648 122.38 26.7427C122.384 26.7385 122.389 26.7358 122.393 26.732C122.421 26.7051 122.447 26.6755 122.47 26.6447L122.47 26.644C122.542 26.5478 122.585 26.4317 122.592 26.3065H122.596V14.567C122.596 11.4537 125.164 8.92962 128.331 8.92962C131.499 8.92962 134.067 11.4537 134.067 14.567L134.069 24.3798L134.07 24.3763C134.07 24.3849 134.071 24.3939 134.071 24.4032V26.3065H134.075C134.094 26.6409 134.376 26.9094 134.72 26.9094H137.571C137.615 26.9094 137.658 26.9043 137.699 26.8962C137.716 26.8933 137.731 26.8867 137.748 26.882C137.771 26.8755 137.795 26.8697 137.818 26.8608C137.841 26.8515 137.862 26.8381 137.884 26.8258C137.898 26.8185 137.912 26.8131 137.925 26.8047C137.951 26.7875 137.975 26.767 137.999 26.7467C138.005 26.7414 138.011 26.7372 138.017 26.7316C138.044 26.706 138.068 26.6784 138.09 26.6494C138.092 26.6472 138.094 26.6454 138.095 26.6434C138.166 26.5478 138.209 26.4326 138.216 26.3083C138.216 26.3074 138.216 26.3065 138.216 26.3065H138.22V25.0103L138.22 25.0099Z" fill="#273347"/>
<path fill-rule="evenodd" clip-rule="evenodd" d="M73.0424 21.4801C74.9455 22.7761 77.0228 23.4054 79.019 23.4054C80.921 23.4054 82.8871 22.4363 82.8871 20.7496C82.8871 18.4976 78.6027 18.1472 75.911 17.248C73.2187 16.3487 70.9 14.4898 70.9 11.4795C70.9 6.87316 75.0756 4.9707 78.9728 4.9707C81.4421 4.9707 83.99 5.77106 85.6417 6.91761C86.2106 7.34129 85.864 7.82771 85.864 7.82771L84.2874 10.0412C84.1101 10.2905 83.8003 10.506 83.3556 10.2361C82.9106 9.96643 81.3505 8.88095 78.9728 8.88095C76.5951 8.88095 75.1626 9.96033 75.1626 11.2982C75.1626 12.9025 77.0244 13.4071 79.2047 13.9539C83.0045 14.9606 87.1497 16.1708 87.1497 20.7496C87.1497 24.8081 83.2876 27.3163 79.019 27.3163C75.7843 27.3163 73.0304 26.41 70.7207 24.7438C70.2395 24.2705 70.5756 23.831 70.5756 23.831L72.1446 21.6287C72.4637 21.2169 72.8663 21.3606 73.0424 21.4801Z" fill="#273347"/>
<defs>
<radialGradient id="paint0_radial_207_73" cx="0" cy="0" r="1" gradientUnits="userSpaceOnUse" gradientTransform="translate(17.6797 18.3803) rotate(147.121) scale(14.9793 14.4488)">
<stop stop-color="#FFB900"/>
<stop offset="0.74709" stop-color="#FA5C86"/>
<stop offset="1" stop-color="#F95353"/>
</radialGradient>
</defs>
</svg>
