<svg width="60" height="61" viewBox="0 0 60 61" fill="none" xmlns="http://www.w3.org/2000/svg">
<mask id="mask0_225_120" style="mask-type:alpha" maskUnits="userSpaceOnUse" x="0" y="0" width="60" height="61">
<rect y="0.0817871" width="60" height="60" fill="#D9D9D9"/>
</mask>
<g mask="url(#mask0_225_120)">
<path d="M10 57.5818V52.5818H50V57.5818H10ZM10 7.58179V2.58179H50V7.58179H10ZM30 32.5818C32.0833 32.5818 33.8542 31.8526 35.3125 30.3943C36.7708 28.936 37.5 27.1651 37.5 25.0818C37.5 22.9985 36.7708 21.2276 35.3125 19.7693C33.8542 18.311 32.0833 17.5818 30 17.5818C27.9167 17.5818 26.1458 18.311 24.6875 19.7693C23.2292 21.2276 22.5 22.9985 22.5 25.0818C22.5 27.1651 23.2292 28.936 24.6875 30.3943C26.1458 31.8526 27.9167 32.5818 30 32.5818ZM10 50.0818C8.625 50.0818 7.44833 49.5926 6.47 48.6143C5.49 47.6343 5 46.4568 5 45.0818V15.0818C5 13.7068 5.49 12.5301 6.47 11.5518C7.44833 10.5718 8.625 10.0818 10 10.0818H50C51.375 10.0818 52.5525 10.5718 53.5325 11.5518C54.5108 12.5301 55 13.7068 55 15.0818V45.0818C55 46.4568 54.5108 47.6343 53.5325 48.6143C52.5525 49.5926 51.375 50.0818 50 50.0818H10ZM14.375 45.0818C16.25 42.7485 18.5208 40.9151 21.1875 39.5818C23.8542 38.2485 26.7917 37.5818 30 37.5818C33.2083 37.5818 36.1458 38.2485 38.8125 39.5818C41.4792 40.9151 43.75 42.7485 45.625 45.0818H50V15.0818H10V45.0818H14.375ZM21.75 45.0818H38.25C37.0417 44.2485 35.74 43.6235 34.345 43.2068C32.9483 42.7901 31.5 42.5818 30 42.5818C28.5 42.5818 27.0525 42.7901 25.6575 43.2068C24.2608 43.6235 22.9583 44.2485 21.75 45.0818ZM30 27.5818C29.2917 27.5818 28.6983 27.3418 28.22 26.8618C27.74 26.3835 27.5 25.7901 27.5 25.0818C27.5 24.3735 27.74 23.7793 28.22 23.2993C28.6983 22.821 29.2917 22.5818 30 22.5818C30.7083 22.5818 31.3025 22.821 31.7825 23.2993C32.2608 23.7793 32.5 24.3735 32.5 25.0818C32.5 25.7901 32.2608 26.3835 31.7825 26.8618C31.3025 27.3418 30.7083 27.5818 30 27.5818Z" fill="#125B50"/>
</g>
</svg>
