<svg width="60" height="61" viewBox="0 0 60 61" fill="none" xmlns="http://www.w3.org/2000/svg">
<mask id="mask0_225_61" style="mask-type:alpha" maskUnits="userSpaceOnUse" x="0" y="0" width="60" height="61">
<rect y="0.0817871" width="60" height="60" fill="#D9D9D9"/>
</mask>
<g mask="url(#mask0_225_61)">
<path d="M18.75 15.0818C17.7083 15.0818 16.8233 15.4468 16.095 16.1768C15.365 16.9051 15 17.7901 15 18.8318C15 19.8735 15.365 20.7585 16.095 21.4868C16.8233 22.2168 17.7083 22.5818 18.75 22.5818C19.7917 22.5818 20.6767 22.2168 21.405 21.4868C22.135 20.7585 22.5 19.8735 22.5 18.8318C22.5 17.7901 22.135 16.9051 21.405 16.1768C20.6767 15.4468 19.7917 15.0818 18.75 15.0818ZM18.75 40.0818C17.7083 40.0818 16.8233 40.4468 16.095 41.1768C15.365 41.9051 15 42.7901 15 43.8318C15 44.8735 15.365 45.7585 16.095 46.4868C16.8233 47.2168 17.7083 47.5818 18.75 47.5818C19.7917 47.5818 20.6767 47.2168 21.405 46.4868C22.135 45.7585 22.5 44.8735 22.5 43.8318C22.5 42.7901 22.135 41.9051 21.405 41.1768C20.6767 40.4468 19.7917 40.0818 18.75 40.0818ZM10 7.58179H50C50.7083 7.58179 51.3017 7.82095 51.78 8.29929C52.26 8.77929 52.5 9.37345 52.5 10.0818V27.5818C52.5 28.2901 52.26 28.8835 51.78 29.3618C51.3017 29.8418 50.7083 30.0818 50 30.0818H10C9.29167 30.0818 8.69833 29.8418 8.22 29.3618C7.74 28.8835 7.5 28.2901 7.5 27.5818V10.0818C7.5 9.37345 7.74 8.77929 8.22 8.29929C8.69833 7.82095 9.29167 7.58179 10 7.58179ZM12.5 12.5818V25.0818H47.5V12.5818H12.5ZM10 32.5818H50C50.7083 32.5818 51.3017 32.821 51.78 33.2993C52.26 33.7793 52.5 34.3735 52.5 35.0818V52.5818C52.5 53.2901 52.26 53.8835 51.78 54.3618C51.3017 54.8418 50.7083 55.0818 50 55.0818H10C9.29167 55.0818 8.69833 54.8418 8.22 54.3618C7.74 53.8835 7.5 53.2901 7.5 52.5818V35.0818C7.5 34.3735 7.74 33.7793 8.22 33.2993C8.69833 32.821 9.29167 32.5818 10 32.5818ZM12.5 37.5818V50.0818H47.5V37.5818H12.5Z" fill="#125B50"/>
</g>
</svg>
