<svg width="60" height="61" viewBox="0 0 60 61" fill="none" xmlns="http://www.w3.org/2000/svg">
<mask id="mask0_225_71" style="mask-type:alpha" maskUnits="userSpaceOnUse" x="0" y="0" width="60" height="61">
<rect y="0.0817871" width="60" height="60" fill="#D9D9D9"/>
</mask>
<g mask="url(#mask0_225_71)">
<path d="M16.25 50.0818C12.4167 50.0818 9.16667 48.7485 6.5 46.0818C3.83333 43.4151 2.5 40.1651 2.5 36.3318C2.5 33.0818 3.51083 30.2168 5.5325 27.7368C7.5525 25.2585 10.0833 23.6651 13.125 22.9568C14.1667 19.2068 16.2292 16.1235 19.3125 13.7068C22.3958 11.2901 25.9583 10.0818 30 10.0818C34.9583 10.0818 39.115 11.8001 42.47 15.2368C45.8233 18.6751 47.5 22.7901 47.5 27.5818C50.625 27.9151 53.0733 29.2068 54.845 31.4568C56.615 33.7068 57.5 36.1443 57.5 38.7693C57.5 41.8943 56.4067 44.561 54.22 46.7693C52.0317 48.9776 49.375 50.0818 46.25 50.0818H16.25ZM16.25 45.0818H46.25C48 45.0818 49.4792 44.4776 50.6875 43.2693C51.8958 42.061 52.5 40.5818 52.5 38.8318C52.5 37.0818 51.8958 35.6026 50.6875 34.3943C49.4792 33.186 48 32.5818 46.25 32.5818H42.5V27.5818C42.5 24.1235 41.2817 21.1751 38.845 18.7368C36.4067 16.3001 33.4583 15.0818 30 15.0818C27.375 15.0818 25.0417 15.8001 23 17.2368C20.9583 18.6751 19.4583 20.5193 18.5 22.7693C21.75 23.311 24.4792 24.8418 26.6875 27.3618C28.8958 29.8835 30 32.8735 30 36.3318H25C25 33.9151 24.1458 31.8526 22.4375 30.1443C20.7292 28.436 18.6667 27.5818 16.25 27.5818C13.8333 27.5818 11.7708 28.436 10.0625 30.1443C8.35417 31.8526 7.5 33.9151 7.5 36.3318C7.5 38.7485 8.35417 40.811 10.0625 42.5193C11.7708 44.2276 13.8333 45.0818 16.25 45.0818Z" fill="#125B50"/>
</g>
</svg>
