<svg width="57" height="56" viewBox="0 0 57 56" fill="none" xmlns="http://www.w3.org/2000/svg">
<rect y="0.0817871" width="57" height="55" rx="6" fill="#FF6363"/>
<mask id="mask0_233_600" style="mask-type:alpha" maskUnits="userSpaceOnUse" x="17" y="15" width="24" height="25">
<rect x="17.5" y="15.5818" width="23" height="23" fill="#D9D9D9" stroke="#FAF5E4"/>
</mask>
<g mask="url(#mask0_233_600)">
<path d="M38.2441 27.5818L36.8398 30.8865L36.5439 31.5818H38.6914L36.5 35.9636V32.5818H34.5V27.5818H38.2441ZM21 17.5818H37C37.3643 17.5818 37.6735 17.6906 37.9453 17.9177L38.0596 18.0222C38.3579 18.3212 38.5 18.6654 38.5 19.0818V24.5818H37.5V18.5818H20.5V33.4636L22.3818 31.5818H31.5V32.5818H22.793L19.5 35.8748V19.0818C19.5 18.7175 19.6092 18.4084 19.8369 18.1365L19.9414 18.0222C20.2396 17.724 20.5835 17.5818 21 17.5818Z" fill="#FF6363" stroke="#FAF5E4"/>
</g>
</svg>
