<svg width="57" height="56" viewBox="0 0 57 56" fill="none" xmlns="http://www.w3.org/2000/svg">
<rect y="0.0817871" width="57" height="55" rx="6" fill="#FF6363"/>
<mask id="mask0_233_575" style="mask-type:alpha" maskUnits="userSpaceOnUse" x="17" y="15" width="24" height="25">
<rect x="17" y="15.0818" width="24" height="24" fill="#D9D9D9"/>
</mask>
<g mask="url(#mask0_233_575)">
<path d="M18 30.0818V24.0818H19.5V26.0818H21.5V24.0818H23V30.0818H21.5V27.5818H19.5V30.0818H18ZM25.5 30.0818V25.5818H24V24.0818H28.5V25.5818H27V30.0818H25.5ZM31 30.0818V25.5818H29.5V24.0818H34V25.5818H32.5V30.0818H31ZM35 30.0818V24.0818H38.5C38.9 24.0818 39.25 24.2318 39.55 24.5318C39.85 24.8318 40 25.1818 40 25.5818V26.5818C40 26.9818 39.85 27.3318 39.55 27.6318C39.25 27.9318 38.9 28.0818 38.5 28.0818H36.5V30.0818H35ZM36.5 26.5818H38.5V25.5818H36.5V26.5818Z" fill="#FAF5E4"/>
</g>
</svg>
