<svg width="93" height="28" viewBox="0 0 93 28" fill="none" xmlns="http://www.w3.org/2000/svg">
<path d="M0.641113 19.7862V0.593506H4.03008V19.7862H0.641113Z" fill="black"/>
<path d="M12.705 5.86255C8.35991 5.86255 5.35303 9.18607 5.35303 12.9902C5.35303 17.2358 8.62417 20.1605 12.7388 20.1605C16.6438 20.1605 20.0323 17.2896 20.0323 12.981C20.0323 9.35789 17.2245 5.86255 12.705 5.86255ZM12.6651 9.11486C14.939 9.11486 16.6128 10.8757 16.6128 13.0024C16.6128 15.2572 14.7674 16.9021 12.7265 16.9021C10.3149 16.9021 8.79726 15.0006 8.79726 13.0085C8.79726 10.8249 10.5107 9.11486 12.6651 9.11486Z" fill="black"/>
<path d="M28.5473 5.86255C24.2023 5.86255 21.1953 9.18607 21.1953 12.9902C21.1953 17.2358 24.4665 20.1605 28.5811 20.1605C32.4861 20.1605 35.8747 17.2896 35.8747 12.981C35.8747 10.4438 34.7703 9.31801 34.7703 9.31801L35.7096 8.99757V6.26134H30.8963C30.8963 6.26134 29.8528 5.86255 28.5473 5.86255ZM28.5075 9.11486C30.7814 9.11486 32.4552 10.8757 32.4552 13.0024C32.4552 15.2572 30.6099 16.9021 28.569 16.9021C26.1573 16.9021 24.6396 15.0006 24.6396 13.0085C24.6396 10.8249 26.353 9.11486 28.5075 9.11486Z" fill="black"/>
<path d="M32.4311 20.7241C32.4311 22.979 30.5857 24.6362 28.5448 24.6362C26.1332 24.6362 24.6095 22.7163 24.6095 20.7241H21.1714C21.1714 24.9698 24.4426 27.8945 28.557 27.8945C32.4622 27.8945 35.8508 25.0328 35.8508 20.7241H32.4311Z" fill="black"/>
<path d="M37.2324 19.7863V6.26147H40.6214V19.7863H37.2324Z" fill="black"/>
<path d="M43.912 19.7861V9.29073H42.0947V6.26134H43.912V2.10815H47.301V6.26134H49.1674V9.29073H47.301V19.7861H43.912Z" fill="black"/>
<path d="M41.1636 2.42004C41.1636 3.65304 40.1588 4.65257 38.9195 4.65257C37.6801 4.65257 36.6753 3.65304 36.6753 2.42004C36.6753 1.18704 37.6801 0.1875 38.9195 0.1875C40.1588 0.1875 41.1636 1.18704 41.1636 2.42004Z" fill="black"/>
<path d="M56.7865 5.85352C52.4208 5.85352 49.6064 9.17877 49.6064 13.1124C49.6064 17.1775 52.4301 20.1697 56.8571 20.1697C60.9866 20.1697 63.018 17.6046 63.018 17.6046L60.7526 15.3478C60.7526 15.3478 59.0421 17.1832 56.9 17.1832C55.1144 17.1832 53.6869 16.1917 53.1886 14.3737H63.7486V13.4453C63.7486 9.74101 61.5934 5.85352 56.7865 5.85352ZM56.679 8.82181C58.2402 8.82181 59.8368 9.6527 60.1938 11.6374H53.0966C53.3778 10.2423 54.6046 8.82181 56.679 8.82181Z" fill="black"/>
<path d="M72.2255 20.1714C67.8474 20.1714 64.8643 16.8542 64.8643 12.9431C64.8643 8.90669 68.2358 5.85083 72.2114 5.85083C76.0547 5.85083 78.0219 8.5499 78.0219 8.5499L75.6578 10.8911C75.6578 10.8911 74.2885 9.13089 72.1954 9.13089C69.8756 9.13089 68.2892 10.8963 68.2892 12.9948C68.2892 15.2106 69.9765 16.9106 72.1693 16.9106C74.296 16.9106 75.6545 15.1532 75.6545 15.1532L78.0424 17.4932C78.0424 17.4932 76.0942 20.1714 72.2255 20.1714Z" fill="black"/>
<path d="M79.2754 19.7958V0.544434H82.6644V7.61744C82.6644 7.61744 83.962 5.85067 86.7846 5.85067C90.3334 5.85067 92.3891 8.47496 92.3891 11.8313V19.7958H89.0002V12.3409C89.0002 10.086 87.589 9.15051 86.0257 9.15051C84.2445 9.15051 82.6644 10.1589 82.6644 12.5154V19.7958H79.2754Z" fill="black"/>
</svg>
