<svg width="137" height="42" viewBox="0 0 137 42" fill="none" xmlns="http://www.w3.org/2000/svg">
<rect width="42" height="42" rx="8" fill="#125B50"/>
<path d="M33.2113 16.7703C34.18 16.7769 34.5743 18.0193 33.7867 18.5833L27.5284 23.0651C27.1762 23.3173 27.0264 23.7677 27.1575 24.1806L29.486 31.5176C29.7791 32.4409 28.7194 33.1998 27.9396 32.6251L21.7432 28.058C21.3944 27.801 20.9199 27.7977 20.5676 28.05L14.3093 32.5318C13.5218 33.0958 12.4725 32.3225 12.7782 31.4033L15.2069 24.0989C15.3436 23.6878 15.2 23.2354 14.8513 22.9784L8.6549 18.4113C7.8751 17.8366 8.28635 16.5998 9.25505 16.6064L16.9525 16.6591C17.3857 16.662 17.7715 16.3857 17.9082 15.9746L20.3369 8.67019C20.6426 7.75095 21.946 7.75987 22.239 8.6832L24.5676 16.0202C24.6986 16.4331 25.0807 16.7147 25.5139 16.7176L33.2113 16.7703Z" fill="#FAF5E4"/>
<path d="M62.9675 31.7907C61.3952 31.7907 59.9952 31.4461 58.7675 30.7569C57.5614 30.0461 56.6137 29.0661 55.9245 27.8169C55.2352 26.5676 54.8906 25.1138 54.8906 23.4553C54.8906 21.7753 55.2245 20.2999 55.8922 19.0292C56.5814 17.7584 57.5291 16.7676 58.7352 16.0568C59.9629 15.3461 61.3845 14.9907 62.9999 14.9907C64.5722 14.9907 65.9399 15.3461 67.1029 16.0568C68.266 16.7461 69.1706 17.6722 69.8168 18.8353C70.4629 19.9984 70.786 21.2799 70.786 22.6799C70.786 22.8953 70.7752 23.1322 70.7537 23.3907C70.7537 23.6276 70.7429 23.8968 70.7214 24.1984H58.2506C58.3583 25.7492 58.8645 26.9338 59.7691 27.7522C60.6952 28.5492 61.7614 28.9476 62.9675 28.9476C63.9368 28.9476 64.7445 28.7322 65.3906 28.3015C66.0583 27.8492 66.5537 27.2461 66.8768 26.4922H70.3014C69.8706 27.9999 69.0091 29.2599 67.7168 30.2722C66.446 31.2845 64.8629 31.7907 62.9675 31.7907ZM62.9675 17.8015C61.826 17.8015 60.8137 18.1461 59.9306 18.8353C59.0475 19.503 58.5091 20.5153 58.3152 21.8722H67.3614C67.2968 20.623 66.8552 19.6322 66.0368 18.8999C65.2183 18.1676 64.1952 17.8015 62.9675 17.8015Z" fill="black"/>
<path d="M80.7363 31.7907C78.7117 31.7907 77.0424 31.2953 75.7286 30.3045C74.4147 29.3138 73.6609 27.9999 73.467 26.363H76.924C77.0963 27.0953 77.5055 27.7307 78.1517 28.2692C78.7978 28.7861 79.6486 29.0445 80.704 29.0445C81.7378 29.0445 82.4917 28.8292 82.9655 28.3984C83.4394 27.9676 83.6763 27.4722 83.6763 26.9122C83.6763 26.0938 83.3424 25.5445 82.6747 25.2645C82.0286 24.963 81.124 24.6938 79.9609 24.4568C79.0563 24.263 78.1517 24.0045 77.247 23.6815C76.364 23.3584 75.6209 22.9061 75.0178 22.3245C74.4363 21.7215 74.1455 20.9138 74.1455 19.9015C74.1455 18.5015 74.684 17.3384 75.7609 16.4122C76.8378 15.4645 78.3455 14.9907 80.284 14.9907C82.0717 14.9907 83.5147 15.4215 84.6132 16.283C85.7332 17.1445 86.3901 18.3615 86.584 19.9338H83.2886C83.1809 19.2445 82.8578 18.7061 82.3194 18.3184C81.8024 17.9307 81.1024 17.7368 80.2194 17.7368C79.3578 17.7368 78.6901 17.9199 78.2163 18.2861C77.7424 18.6307 77.5055 19.083 77.5055 19.643C77.5055 20.203 77.8286 20.6445 78.4747 20.9676C79.1424 21.2907 80.0147 21.5815 81.0917 21.8399C82.1686 22.0768 83.1594 22.3568 84.064 22.6799C84.9901 22.9815 85.7332 23.4338 86.2932 24.0368C86.8532 24.6399 87.1332 25.523 87.1332 26.6861C87.1547 28.1507 86.584 29.3676 85.4209 30.3368C84.2794 31.3061 82.7178 31.7907 80.7363 31.7907Z" fill="black"/>
<path d="M96.9923 31.403C95.42 31.403 94.1708 31.0261 93.2447 30.2722C92.3185 29.4968 91.8554 28.1292 91.8554 26.1692V18.2538H89.1093V15.3784H91.8554L92.2754 11.3076H95.28V15.3784H99.8031V18.2538H95.28V26.1692C95.28 27.0522 95.4631 27.6661 95.8293 28.0107C96.217 28.3338 96.8739 28.4953 97.8 28.4953H99.6416V31.403H96.9923Z" fill="black"/>
<path d="M108.762 31.7907C107.405 31.7907 106.285 31.5645 105.402 31.1122C104.519 30.6599 103.862 30.0676 103.431 29.3353C103 28.5815 102.785 27.763 102.785 26.8799C102.785 25.3292 103.388 24.1015 104.594 23.1968C105.8 22.2922 107.523 21.8399 109.763 21.8399H113.963V21.5492C113.963 20.2999 113.619 19.363 112.93 18.7384C112.262 18.1138 111.39 17.8015 110.313 17.8015C109.365 17.8015 108.536 18.0384 107.825 18.5122C107.136 18.9645 106.716 19.643 106.565 20.5476H103.14C103.248 19.3845 103.636 18.3938 104.303 17.5753C104.993 16.7353 105.854 16.0999 106.888 15.6692C107.943 15.2168 109.096 14.9907 110.345 14.9907C112.585 14.9907 114.319 15.583 115.547 16.7676C116.774 17.9307 117.388 19.5245 117.388 21.5492V31.403H114.416L114.125 28.6568C113.673 29.5399 113.016 30.283 112.154 30.8861C111.293 31.4892 110.162 31.7907 108.762 31.7907ZM109.44 29.0122C110.367 29.0122 111.142 28.7969 111.767 28.3661C112.413 27.9138 112.908 27.3215 113.253 26.5892C113.619 25.8568 113.845 25.0492 113.931 24.1661H110.119C108.762 24.1661 107.793 24.403 107.211 24.8768C106.651 25.3507 106.371 25.943 106.371 26.6538C106.371 27.3861 106.64 27.9676 107.179 28.3984C107.739 28.8076 108.493 29.0122 109.44 29.0122Z" fill="black"/>
<path d="M128.973 31.7907C127.401 31.7907 125.99 31.4353 124.741 30.7245C123.513 30.0138 122.544 29.0338 121.833 27.7845C121.144 26.5138 120.8 25.0492 120.8 23.3907C120.8 21.7322 121.144 20.2784 121.833 19.0292C122.544 17.7584 123.513 16.7676 124.741 16.0568C125.99 15.3461 127.401 14.9907 128.973 14.9907C130.955 14.9907 132.613 15.5076 133.949 16.5415C135.306 17.5753 136.178 18.9753 136.566 20.7415H132.98C132.764 19.8584 132.29 19.1692 131.558 18.6738C130.826 18.1784 129.964 17.9307 128.973 17.9307C128.133 17.9307 127.358 18.1461 126.647 18.5768C125.937 18.9861 125.366 19.5999 124.935 20.4184C124.504 21.2153 124.289 22.2061 124.289 23.3907C124.289 24.5753 124.504 25.5768 124.935 26.3953C125.366 27.1922 125.937 27.8061 126.647 28.2368C127.358 28.6676 128.133 28.883 128.973 28.883C129.964 28.883 130.826 28.6353 131.558 28.1399C132.29 27.6445 132.764 26.9445 132.98 26.0399H136.566C136.2 27.763 135.338 29.1522 133.981 30.2076C132.624 31.263 130.955 31.7907 128.973 31.7907Z" fill="black"/>
</svg>
