<svg width="60" height="61" viewBox="0 0 60 61" fill="none" xmlns="http://www.w3.org/2000/svg">
<mask id="mask0_225_103" style="mask-type:alpha" maskUnits="userSpaceOnUse" x="0" y="0" width="60" height="61">
<rect y="0.0817871" width="60" height="60" fill="#D9D9D9"/>
</mask>
<g mask="url(#mask0_225_103)">
<path d="M10 35.0818C8.625 35.0818 7.44833 34.5918 6.47 33.6118C5.49 32.6335 5 31.4568 5 30.0818C5 28.7068 5.49 27.5293 6.47 26.5493C7.44833 25.571 8.625 25.0818 10 25.0818C11.375 25.0818 12.5517 25.571 13.53 26.5493C14.51 27.5293 15 28.7068 15 30.0818C15 31.4568 14.51 32.6335 13.53 33.6118C12.5517 34.5918 11.375 35.0818 10 35.0818ZM14.125 49.3318L10.625 45.8318L21.5 34.9568L25 38.4568L14.125 49.3318ZM21.625 25.0818L10.75 14.2068L14.25 10.7068L25.125 21.5818L21.625 25.0818ZM30 55.0818C28.625 55.0818 27.4483 54.5926 26.47 53.6143C25.49 52.6343 25 51.4568 25 50.0818C25 48.7068 25.49 47.5293 26.47 46.5493C27.4483 45.571 28.625 45.0818 30 45.0818C31.375 45.0818 32.5525 45.571 33.5325 46.5493C34.5108 47.5293 35 48.7068 35 50.0818C35 51.4568 34.5108 52.6343 33.5325 53.6143C32.5525 54.5926 31.375 55.0818 30 55.0818ZM30 15.0818C28.625 15.0818 27.4483 14.5918 26.47 13.6118C25.49 12.6335 25 11.4568 25 10.0818C25 8.70679 25.49 7.52929 26.47 6.54929C27.4483 5.57095 28.625 5.08179 30 5.08179C31.375 5.08179 32.5525 5.57095 33.5325 6.54929C34.5108 7.52929 35 8.70679 35 10.0818C35 11.4568 34.5108 12.6335 33.5325 13.6118C32.5525 14.5918 31.375 15.0818 30 15.0818ZM38.375 25.2068L34.875 21.5818L45.875 10.7068L49.375 14.2068L38.375 25.2068ZM45.875 49.3318L35 38.4568L38.5 34.9568L49.375 45.8318L45.875 49.3318ZM50 35.0818C48.625 35.0818 47.4475 34.5918 46.4675 33.6118C45.4892 32.6335 45 31.4568 45 30.0818C45 28.7068 45.4892 27.5293 46.4675 26.5493C47.4475 25.571 48.625 25.0818 50 25.0818C51.375 25.0818 52.5525 25.571 53.5325 26.5493C54.5108 27.5293 55 28.7068 55 30.0818C55 31.4568 54.5108 32.6335 53.5325 33.6118C52.5525 34.5918 51.375 35.0818 50 35.0818Z" fill="#125B50"/>
</g>
</svg>
