<svg width="60" height="61" viewBox="0 0 60 61" fill="none" xmlns="http://www.w3.org/2000/svg">
<mask id="mask0_225_123" style="mask-type:alpha" maskUnits="userSpaceOnUse" x="0" y="0" width="60" height="61">
<rect y="0.0817871" width="60" height="60" fill="#D9D9D9"/>
</mask>
<g mask="url(#mask0_225_123)">
<path d="M10 50.0818C8.625 50.0818 7.44833 49.5926 6.47 48.6143C5.49 47.6343 5 46.4568 5 45.0818V15.0818C5 13.7068 5.49 12.5301 6.47 11.5518C7.44833 10.5718 8.625 10.0818 10 10.0818H50C51.375 10.0818 52.5525 10.5718 53.5325 11.5518C54.5108 12.5301 55 13.7068 55 15.0818V45.0818C55 46.4568 54.5108 47.6343 53.5325 48.6143C52.5525 49.5926 51.375 50.0818 50 50.0818H10ZM10 45.0818H50V20.0818H10V45.0818ZM18.75 42.5818L15.25 39.0818L21.6875 32.5818L15.1875 26.0818L18.75 22.5818L28.75 32.5818L18.75 42.5818ZM30 42.5818V37.5818H45V42.5818H30Z" fill="#125B50"/>
</g>
</svg>
